# xmcd CD database file
#
# Track frame offsets:
#	150
#	19711
#	35382
#	51119
#	61433
#	79417
#	94885
#	114780
#	132073
#	150130
#	171469
#	183673
#	203048
#	225224
#
# Disc length: 3146 seconds
#
# Revision: 0
# Processed by: cddbd v1.5.2PL0 Copyright (c) Steve Scherf et al.
# Submitted via: CDex 2.02
#
DISCID=a80c480e
DTITLE=Reggie Miles - Stray Dog Blues
DYEAR=1995
DGENRE=Blues
TTITLE0=Take It Slow And Easy
TTITLE1=Hundred Dollar Women
TTITLE2=Walkin' Blues
TTITLE3=Crazy 'Bout You
TTITLE4=Goin' to Brownsville
TTITLE5=Blues Around Midnight
TTITLE6=32-20 Blues
TTITLE7=Framed
TTITLE8=Baby Please Don't Go
TTITLE9=51 Highway Blues
TTITLE10=Dead Presidents
TTITLE11=Back Door Man
TTITLE12=Please Baby
TTITLE13=Stray Dog Bl;ues
EXTD=YEAR: 1995
EXTT0=
EXTT1=
EXTT2=
EXTT3=
EXTT4=
EXTT5=
EXTT6=
EXTT7=
EXTT8=
EXTT9=
EXTT10=
EXTT11=
EXTT12=
EXTT13=
PLAYORDER=
